<svg xmlns="http://www.w3.org/2000/svg" viewBox="0 0 360 500" preserveAspectRatio="xMidYMid slice">
<defs><linearGradient id="s" x1="0" y1="0" x2="1" y2="1"><stop offset="0" stop-color="#5d2c2f"/><stop offset="1" stop-color="#1e0e0f"/></linearGradient></defs>
<rect width="360" height="500" fill="url(#s)"/>
<g opacity=".08" stroke="#fff" stroke-width="18"><path d="M-40 120 L400 -40M-40 260 L400 100M-40 400 L400 240M-40 540 L400 380"/></g>
<g transform="translate(180 60) scale(.62) translate(-180 -60)"><rect x="95" y="110" width="170" height="220" rx="10" fill="none" stroke="#fff" stroke-width="5" opacity=".9"/>
<rect x="140" y="96" width="80" height="30" rx="6" fill="#bf8e07"/>
<g stroke="#fff" stroke-width="5" stroke-linecap="round" opacity=".9"><path d="M170 172h65M170 222h65M170 272h65"/></g>
<g stroke="#bf8e07" stroke-width="6" stroke-linecap="round" stroke-linejoin="round" fill="none"><path d="M122 172l10 10 18-20M122 222l10 10 18-20M122 272l10 10 18-20"/></g></g>
</svg>
